<?xml version="1.0" encoding="UTF-8"?>
<svg version="1.1" xmlns="http://www.w3.org/2000/svg" width="500" height="500">
<path d="M0 0 C3.30769473 -0.40502384 5.92113683 -0.65689766 8.84765625 1.125 C11.69328052 3.5265818 14.05711648 6.06883269 16.4375 8.9375 C18.41067837 11.29568878 20.1030785 13.0130502 22.41845703 14.95361328 C27.60261633 19.43952979 32.40444398 24.29161055 37.229702 29.1545372 C38.90030392 30.83806005 40.57414799 32.51830062 42.24880981 34.19778442 C45.79371937 37.75402844 49.33463444 41.31423302 52.875 44.875 C57.0010011 49.02462351 61.12863466 53.17259642 65.26047134 57.31641006 C66.90998644 58.972409 68.55646581 60.63138632 70.20285034 62.29049683 C71.20784043 63.29911707 72.21296984 64.30759852 73.21826172 65.31591797 C74.09570038 66.19859344 74.97313904 67.08126892 75.87716675 67.99069214 C77.83493071 70.03832137 77.83493071 70.03832137 80 71 C80 71.66 80 72.32 80 73 C80.66 73 81.32 73 82 73 C82 73.66 82 74.32 82 75 C82.56203125 75.2371875 83.1240625 75.474375 83.703125 75.71875 C86.51894042 77.28947697 88.47955416 79.21471464 90.75 81.5 C91.94882813 82.69109375 91.94882813 82.69109375 93.171875 83.90625 C95 86 95 86 95 88 C95.66 88 96.32 88 97 88 C97 88.66 97 89.32 97 90 C98.65 90 100.3 90 102 90 C102 89.34 102 88.68 102 88 C102.66 88 103.32 88 104 88 C104 87.34 104 86.68 104 86 C104.66 86 105.32 86 106 86 C106.38671875 85.12601563 106.38671875 85.12601563 106.78125 84.234375 C108.09834017 81.8197097 109.55088384 80.18259823 111.5 78.25 C112.1084375 77.63640625 112.716875 77.0228125 113.34375 76.390625 C115 75 115 75 117 75 C117 74.34 117 73.68 117 73 C117.66 73 118.32 73 119 73 C119 72.34 119 71.68 119 71 C119.66 71 120.32 71 121 71 C121.99 69.02 121.99 69.02 123 67 C123.66 67 124.32 67 125 67 C125.268125 66.360625 125.53625 65.72125 125.8125 65.0625 C127 63 127 63 130 62 C130 61.34 130 60.68 130 60 C131.35546875 58.66796875 131.35546875 58.66796875 133.1875 57.1875 C136.30237295 54.6053518 139.17375061 51.90062438 142 49 C143.66523544 47.33190333 145.33213902 45.6654715 147 44 C147.97924923 43.0209159 148.95841356 42.04174689 149.9375 41.0625 C156.0625 34.9375 156.0625 34.9375 157.55957031 33.44067383 C158.91008266 32.08993258 160.25975876 30.73835537 161.609375 29.38671875 C163.1353747 27.86321251 164.6661578 26.34447238 166.203125 24.83203125 C167.21632813 23.83236328 167.21632813 23.83236328 168.25 22.8125 C168.93578125 22.13832031 169.6215625 21.46414062 170.328125 20.76953125 C172.07449111 19.09201005 172.07449111 19.09201005 173 17 C173.66 17 174.32 17 175 17 C175 16.34 175 15.68 175 15 C175.66 15 176.32 15 177 15 C177 14.34 177 13.68 177 13 C178.57421875 11.44921875 178.57421875 11.44921875 180.6875 9.6875 C183.17934547 7.57494428 185.59912338 5.46922126 187.875 3.125 C190.26849009 0.73150991 191.32820394 0.12796115 194.625 -0.5 C203.17416887 0.76654354 210.400617 11.24570169 216.37524414 17.24487305 C217.95539644 18.83045796 219.54091976 20.41053442 221.12695312 21.99023438 C222.13573806 22.99967892 223.14421338 24.00943299 224.15234375 25.01953125 C225.05976318 25.92807861 225.96718262 26.83662598 226.90209961 27.77270508 C229.5614029 30.59602917 229.95515962 31.40586501 230.25 35.3125 C229.93103728 40.01720005 228.8730159 42.26470585 225.40625 45.4765625 C224.07944243 46.62392478 222.74269003 47.75984535 221.3984375 48.88671875 C217.9814527 51.89744966 214.83136968 55.15666425 211.68164062 58.44384766 C210.49042378 59.66540036 209.2488087 60.83738854 208 62 C207.34 62 206.68 62 206 62 C205.7525 62.556875 205.505 63.11375 205.25 63.6875 C202.69192231 68.41994372 199.37456435 71.89175691 195 75 C194.34 75 193.68 75 193 75 C193 75.66 193 76.32 193 77 C191.50390625 78.4375 191.50390625 78.4375 189.5625 80 C186.84811762 82.14525044 186.84811762 82.14525044 185 85 C184.34 85 183.68 85 183 85 C182.731875 85.639375 182.46375 86.27875 182.1875 86.9375 C181 89 181 89 178 90 C178 90.66 178 91.32 178 92 C176.50390625 93.4375 176.50390625 93.4375 174.5625 95 C171.84811762 97.14525044 171.84811762 97.14525044 170 100 C169.34 100 168.68 100 168 100 C167.5978125 100.8971875 167.5978125 100.8971875 167.1875 101.8125 C166.00082594 103.99847854 164.90400887 105.41332594 163 107 C162.34 107 161.68 107 161 107 C161 107.66 161 108.32 161 109 C159.52307016 110.2471852 158.04202596 111.49035235 156.52734375 112.69140625 C154.70225929 114.25509754 153.42509913 116.07611618 152 118 C151.34 118 150.68 118 150 118 C150 118.66 150 119.32 150 120 C149.34 120 148.68 120 148 120 C148 120.66 148 121.32 148 122 C147.34 122 146.68 122 146 122 C146 122.66 146 123.32 146 124 C144.04072937 125.7143618 142.04119788 127.38405168 140 129 C140.58242207 132.42321904 141.67740354 134.03982964 144.14282227 136.45166016 C144.80343155 137.10558746 145.46404083 137.75951477 146.14466858 138.43325806 C147.21967873 139.47563126 147.21967873 139.47563126 148.31640625 140.5390625 C149.04746078 141.26112885 149.77851532 141.98319519 150.53172302 142.72714233 C152.86830601 145.03367937 155.21451883 147.33007105 157.5625 149.625 C159.91315157 151.92793356 162.26154199 154.23300108 164.60398865 156.54428101 C166.0624055 157.98283226 167.52573886 159.41641852 168.99427795 160.84463501 C169.65173508 161.492258 170.3091922 162.13988098 170.98657227 162.80712891 C171.56979752 163.37686432 172.15302277 163.94659973 172.75392151 164.53359985 C174 166 174 166 174 168 C175.32 168.66 176.64 169.32 178 170 C178 170.66 178 171.32 178 172 C178.639375 172.268125 179.27875 172.53625 179.9375 172.8125 C182 174 182 174 183 177 C183.66 177 184.32 177 185 177 C186.4375 178.49609375 186.4375 178.49609375 188 180.4375 C190.14525044 183.15188238 190.14525044 183.15188238 193 185 C193 185.66 193 186.32 193 187 C193.99 187.33 194.98 187.66 196 188 C196 188.66 196 189.32 196 190 C196.66 190 197.32 190 198 190 C198 190.66 198 191.32 198 192 C198.66 192 199.32 192 200 192 C201.33203125 193.390625 201.33203125 193.390625 202.8125 195.25 C205.29370595 198.26768291 207.9374289 200.56795824 211 203 C211 203.66 211 204.32 211 205 C212.32 205.66 213.64 206.32 215 207 C215 207.66 215 208.32 215 209 C215.66 209 216.32 209 217 209 C218.20261878 210.43646132 219.40073426 211.87714785 220.56640625 213.34375 C221.99950682 214.99943022 223.48159482 216.31943912 225.1875 217.6875 C228.47702734 220.39222248 229.81857175 221.97190658 230.5625 226.1875 C229.75253257 231.67727928 226.76915238 234.13265327 223 238 C221.40321951 239.90316049 219.83084953 241.82405318 218.26171875 243.75 C217 245 217 245 215 245 C215 245.66 215 246.32 215 247 C213.53125 248.4453125 213.53125 248.4453125 211.5 250.125 C208.39558362 252.72112285 205.69724044 255.42451118 203 258.4375 C200.27373912 261.21753329 198.63315989 262.53122746 194.6875 262.625 C191 262 191 262 188 260 C188 259.34 188 258.68 188 258 C187.34 258 186.68 258 186 258 C186 257.34 186 256.68 186 256 C185.34 256 184.68 256 184 256 C182.34375 254.28515625 182.34375 254.28515625 180.5 252.0625 C178.11073001 249.07954821 178.11073001 249.07954821 175 247 C175 246.34 175 245.68 175 245 C174.34 245 173.68 245 173 245 C173 244.34 173 243.68 173 243 C172.41476562 242.75378906 171.82953125 242.50757813 171.2265625 242.25390625 C168.65597983 240.80626232 167.24544307 239.20757518 165.375 236.9375 C163.04514448 234.02124288 163.04514448 234.02124288 160 232 C160 231.34 160 230.68 160 230 C159.34 230 158.68 230 158 230 C158 229.34 158 228.68 158 228 C157.01 227.67 156.02 227.34 155 227 C155 226.34 155 225.68 155 225 C154.34 225 153.68 225 153 225 C151.5625 223.50390625 151.5625 223.50390625 150 221.5625 C147.85474956 218.84811762 147.85474956 218.84811762 145 217 C145 216.34 145 215.68 145 215 C144.34 215 143.68 215 143 215 C141.375 213.625 141.375 213.625 140 212 C140 211.34 140 210.68 140 210 C139.34 210 138.68 210 138 210 C136.4140625 208.35546875 136.4140625 208.35546875 134.625 206.1875 C132.76433718 203.93749143 131.13127297 202.09649715 128.7734375 200.36328125 C128.18820312 199.91339844 127.60296875 199.46351563 127 199 C127 198.34 127 197.68 127 197 C126.34 197 125.68 197 125 197 C125 196.34 125 195.68 125 195 C124.34 195 123.68 195 123 195 C121.4140625 193.35546875 121.4140625 193.35546875 119.625 191.1875 C117.76433718 188.93749143 116.13127297 187.09649715 113.7734375 185.36328125 C113.18820312 184.91339844 112.60296875 184.46351563 112 184 C112 183.34 112 182.68 112 182 C111.34 182 110.68 182 110 182 C110 181.34 110 180.68 110 180 C109.34 180 108.68 180 108 180 C108 179.34 108 178.68 108 178 C107.34 178 106.68 178 106 178 C104.4921875 176.46875 104.4921875 176.46875 102.875 174.5 C102.33617187 173.8503125 101.79734375 173.200625 101.2421875 172.53125 C100.83226562 172.0259375 100.42234375 171.520625 100 171 C98.93513145 171.89301656 97.87324959 172.7895947 96.8125 173.6875 C96.22082031 174.18636719 95.62914062 174.68523437 95.01953125 175.19921875 C92.57981637 177.37467051 90.30525461 179.68181767 88 182 C86.95621628 183.04829792 85.91241763 184.09658099 84.86860657 185.14485168 C83.68361426 186.33587679 82.49865419 187.52693396 81.3137207 188.71801758 C74.70874156 195.35559095 68.09873677 201.98813591 61.48582172 208.61780262 C57.48847305 212.62563593 53.49303421 216.63533722 49.50170898 220.64916992 C45.63590377 224.53662921 41.76530077 228.41925019 37.89125633 232.29849815 C36.41465575 233.77880311 34.93982084 235.26087143 33.46676064 236.74469948 C31.41512511 238.81075405 29.35741693 240.87056522 27.2980957 242.92895508 C26.686642 243.54759933 26.07518829 244.16624359 25.44520569 244.80363464 C21.22810948 249 21.22810948 249 19 249 C18.73058594 249.58523438 18.46117187 250.17046875 18.18359375 250.7734375 C16.99937503 253.00117569 15.71029447 254.721441 14.0625 256.625 C13.55847656 257.21539062 13.05445313 257.80578125 12.53515625 258.4140625 C9.84606408 261.19210683 8.11950732 261.98342023 4.26928711 262.51757812 C-1.08842973 262.36170838 -3.7324323 259.40790917 -7.30859375 255.71875 C-8.28687889 254.74838806 -8.28687889 254.74838806 -9.28492737 253.75842285 C-10.65505311 252.38935609 -12.015261 251.01030019 -13.3659668 249.62207031 C-15.42971354 247.50797642 -17.53042829 245.43680415 -19.63867188 243.3671875 C-20.96855065 242.02842624 -22.29610641 240.68735255 -23.62109375 239.34375 C-24.24704941 238.7288269 -24.87300507 238.11390381 -25.51792908 237.48034668 C-29.7302004 233.08269955 -30.9931876 230.13477048 -31 224 C-28.58967128 219.12483763 -24.91645121 215.82787423 -20.875 212.3125 C-17.89514791 209.69351729 -15.22220992 207.33331488 -13 204 C-12.34 204 -11.68 204 -11 204 C-10.67 203.01 -10.34 202.02 -10 201 C-8.5456543 199.56689453 -8.5456543 199.56689453 -6.63671875 198.0078125 C-1.05676771 193.27262997 4.04026563 188.06787657 9.1875 182.875 C10.16838194 181.88908623 11.14950049 180.90340779 12.13085938 179.91796875 C13.93530568 178.10544559 15.73810452 176.29134218 17.53979492 174.47607422 C19.23930182 172.76560493 20.94389926 171.06018388 22.65258789 169.35888672 C25.27083058 166.72784555 27.75976695 164.00236284 30.25 161.25 C34.47132364 156.60178473 38.81527017 152.11897239 43.3203125 147.7421875 C45.07828806 146.09246586 45.07828806 146.09246586 46 144 C46.66 144 47.32 144 48 144 C48 143.34 48 142.68 48 142 C48.66 142 49.32 142 50 142 C50 141.34 50 140.68 50 140 C50.66 140 51.32 140 52 140 C52 139.34 52 138.68 52 138 C53.53125 136.4921875 53.53125 136.4921875 55.5 134.875 C56.1496875 134.33617187 56.799375 133.79734375 57.46875 133.2421875 C57.9740625 132.83226562 58.479375 132.42234375 59 132 C57.55220064 126.90935065 54.54791761 124.40876654 50.6875 121.0625 C47.35141245 118.13445034 44.12914625 115.27720368 41.3203125 111.828125 C39.37376977 109.45557124 37.5498139 107.61216417 35.1875 105.6875 C32.18860968 103.13872455 29.57332387 100.47777556 27 97.5 C23.93144234 93.95981577 20.71921538 90.90830707 17.14453125 87.890625 C13.72428167 84.875323 10.5759762 81.59571064 7.39453125 78.33203125 C5.01646888 75.92935042 5.01646888 75.92935042 2.19921875 73.82421875 C1.47347656 73.22222656 0.74773437 72.62023437 0 72 C0 71.34 0 70.68 0 70 C-0.66 70 -1.32 70 -2 70 C-2 69.34 -2 68.68 -2 68 C-2.66 68 -3.32 68 -4 68 C-5.65625 66.28515625 -5.65625 66.28515625 -7.5 64.0625 C-9.88926999 61.07954821 -9.88926999 61.07954821 -13 59 C-13 58.34 -13 57.68 -13 57 C-13.66 57 -14.32 57 -15 57 C-15 56.34 -15 55.68 -15 55 C-15.66 55 -16.32 55 -17 55 C-17 54.34 -17 53.68 -17 53 C-17.66 53 -18.32 53 -19 53 C-20.65625 51.28515625 -20.65625 51.28515625 -22.5 49.0625 C-24.88926999 46.07954821 -24.88926999 46.07954821 -28 44 C-28 43.34 -28 42.68 -28 42 C-28.66 42 -29.32 42 -30 42 C-32.32820229 35.87315187 -32.32820229 35.87315187 -30.93383789 32.16357422 C-28.64057673 28.41201783 -25.99135933 25.5775592 -22.87109375 22.5078125 C-22.28078873 21.91700897 -21.6904837 21.32620544 -21.08229065 20.71749878 C-19.84108916 19.47862627 -18.59622147 18.24341706 -17.34790039 17.01171875 C-15.4312516 15.11882906 -13.52844284 13.21279237 -11.62695312 11.3046875 C-10.41745942 10.10076556 -9.20719971 8.89761256 -7.99609375 7.6953125 C-7.42523544 7.12354279 -6.85437714 6.55177307 -6.26622009 5.962677 C-2.2310705 2 -2.2310705 2 0 2 C0 1.34 0 0.68 0 0 Z " fill="#040404" transform="translate(151,119)"/>
<path d="M0 0 C0.99 1.485 0.99 1.485 2 3 C0.79250553 4.06345325 -0.41604746 5.12570461 -1.625 6.1875 C-2.72521484 7.15429688 -2.72521484 7.15429688 -3.84765625 8.140625 C-5.55207797 9.6130474 -7.3002067 11.0348584 -9.0625 12.4375 C-12.08658966 15.07553566 -14.61447573 17.87237401 -17.19140625 20.9375 C-19.35606369 23.40605104 -21.67147404 25.68526234 -24 28 C-24.76699219 28.76699219 -25.53398437 29.53398437 -26.32421875 30.32421875 C-44 48 -44 48 -46.6796875 50.64453125 C-49.01512097 52.9166627 -49.01512097 52.9166627 -50.8125 55.375 C-54.42976305 59.71571566 -58.56994865 64.18998288 -64 66 C-62.41408344 61.8072331 -59.28632067 59.30915521 -56 56.4375 C-51.61717975 52.57853059 -51.61717975 52.57853059 -48 48 C-47.34 48 -46.68 48 -46 48 C-45.67 47.01 -45.34 46.02 -45 45 C-43.5456543 43.56689453 -43.5456543 43.56689453 -41.63671875 42.0078125 C-36.05676771 37.27262997 -30.95973437 32.06787657 -25.8125 26.875 C-24.83161806 25.88908623 -23.85049951 24.90340779 -22.86914062 23.91796875 C-21.06469432 22.10544559 -19.26189548 20.29134218 -17.46020508 18.47607422 C-15.76272613 16.76764597 -14.06017386 15.06424875 -12.35351562 13.36499023 C-9.71262474 10.71122364 -7.19746786 7.96519777 -4.6875 5.1875 C-3.80449219 4.21167969 -2.92148438 3.23585938 -2.01171875 2.23046875 C-1.34785156 1.49441406 -0.68398437 0.75835937 0 0 Z " fill="#383838" transform="translate(186,275)"/>
<path d="M0 0 C-1.40042988 3.17386941 -3.05214618 5.28860814 -5.51953125 7.71484375 C-6.55883789 8.74448242 -6.55883789 8.74448242 -7.61914062 9.79492188 C-8.34294922 10.50197266 -9.06675781 11.20902344 -9.8125 11.9375 C-10.88081055 12.99227539 -10.88081055 12.99227539 -11.97070312 14.06835938 C-13.35500867 15.43473682 -14.74141288 16.79899206 -16.13012695 18.16088867 C-17.71213102 19.71686682 -19.28144224 21.28369182 -20.84375 22.859375 C-22.40022545 24.40457164 -24.02500943 25.88198486 -25.6875 27.3125 C-28.7116669 30.82707234 -29.15724657 33.47977708 -30 38 C-31.1875 36.4375 -31.1875 36.4375 -32 34 C-30.08563446 28.1815036 -27.21087012 24.64029244 -22.87109375 20.41015625 C-22.28078873 19.82076767 -21.6904837 19.23137909 -21.08229065 18.62413025 C-19.8422264 17.39007275 -18.59734024 16.16084342 -17.34790039 14.9362793 C-15.42914717 13.05430729 -13.52715109 11.15654702 -11.62695312 9.25585938 C-10.41761086 8.05633899 -9.20735638 6.85773744 -7.99609375 5.66015625 C-7.42523544 5.09152359 -6.85437714 4.52289093 -6.26622009 3.93702698 C-2.23220749 0 -2.23220749 0 0 0 Z " fill="#3B3B3B" transform="translate(151,121)"/>
<path d="M0 0 C0.99 0.99 1.98 1.98 3 3 C-0.3 2.67 -3.6 2.34 -7 2 C-7.66 3.32 -8.32 4.64 -9 6 C-10.55078125 7.74609375 -10.55078125 7.74609375 -12.3125 9.4375 C-12.93511719 10.04207031 -13.55773437 10.64664063 -14.19921875 11.26953125 C-14.79347656 11.84058594 -15.38773437 12.41164062 -16 13 C-16.86625 13.86625 -17.7325 14.7325 -18.625 15.625 C-21.08333333 18.08333333 -23.54166667 20.54166667 -26 23 C-26.99 22.67 -27.98 22.34 -29 22 C-27.71937515 20.2925002 -26.38232443 18.62626404 -25 17 C-24.34 17 -23.68 17 -23 17 C-23 16.34 -23 15.68 -23 15 C-22.34 15 -21.68 15 -21 15 C-21 14.34 -21 13.68 -21 13 C-19.42578125 11.44921875 -19.42578125 11.44921875 -17.3125 9.6875 C-14.82065453 7.57494428 -12.40087662 5.46922126 -10.125 3.125 C-6.79819919 -0.20180081 -4.64875012 -0.37948981 0 0 Z " fill="#5C5C5C" transform="translate(349,119)"/>
<path d="M0 0 C0.33 0.99 0.66 1.98 1 3 C0.44570312 3.4846875 -0.10859375 3.969375 -0.6796875 4.46875 C-5.70381055 9.11740478 -8.02729278 12.19104943 -9 19 C-10.1875 17.4375 -10.1875 17.4375 -11 15 C-9.21691719 8.37712098 -4.9639021 4.53943541 0 0 Z " fill="#5B5B5B" transform="translate(130,140)"/>
<path d="M0 0 C0.66 0.33 1.32 0.66 2 1 C-0.31 3.64 -2.62 6.28 -5 9 C-6.32 8.67 -7.64 8.34 -9 8 C-7.71937515 6.2925002 -6.38232443 4.62626404 -5 3 C-4.34 3 -3.68 3 -3 3 C-3 2.34 -3 1.68 -3 1 C-2.01 0.67 -1.02 0.34 0 0 Z " fill="#3E3E3E" transform="translate(329,133)"/>
<path d="M0 0 C0.99 0.33 1.98 0.66 3 1 C1.73427767 2.15147661 0.46222094 3.29599314 -0.8125 4.4375 C-1.52019531 5.07558594 -2.22789063 5.71367187 -2.95703125 6.37109375 C-5 8 -5 8 -8 9 C-6.40758592 4.70048197 -3.64459275 2.60328053 0 0 Z " fill="#575757" transform="translate(130,332)"/>
</svg>
